<svg width="238" height="54" viewBox="0 0 238 54" fill="none" xmlns="http://www.w3.org/2000/svg">
<path d="M62.725 41H57.65V23.85H51.35V18.95H69.025V23.85H62.725V41ZM78.3 24.725C78.51 24.725 78.6967 24.7367 78.86 24.76C79.0467 24.7833 79.1983 24.8067 79.315 24.83C79.455 24.8533 79.5833 24.8767 79.7 24.9V29.8C79.56 29.7533 79.3967 29.695 79.21 29.625C79.0467 29.5783 78.86 29.5433 78.65 29.52C78.44 29.4733 78.2067 29.45 77.95 29.45C77.0633 29.45 76.34 29.7417 75.78 30.325C75.2433 30.9083 74.975 31.725 74.975 32.775V41H70.25V24.9H73.75L74.45 26.65C74.73 26.3 75.0683 25.985 75.465 25.705C75.7917 25.4483 76.1883 25.2267 76.655 25.04C77.145 24.83 77.6933 24.725 78.3 24.725ZM88.9736 24.55C89.9303 24.55 90.817 24.7133 91.6336 25.04C92.4503 25.3667 93.1503 25.8333 93.7336 26.44C94.3403 27.0233 94.807 27.7233 95.1336 28.54C95.4603 29.3567 95.6236 30.2433 95.6236 31.2V41H92.1236L91.4236 39.425C91.027 39.7517 90.5836 40.0433 90.0936 40.3C89.6736 40.5333 89.172 40.7433 88.5886 40.93C88.0286 41.0933 87.3986 41.175 86.6986 41.175C84.9486 41.175 83.607 40.755 82.6736 39.915C81.7403 39.0517 81.2736 37.955 81.2736 36.625C81.2736 35.8317 81.4253 35.1083 81.7286 34.455C82.0553 33.7783 82.592 33.2067 83.3386 32.74C84.0853 32.25 85.0653 31.8767 86.2786 31.62C87.5153 31.34 89.0553 31.2 90.8986 31.2C90.8986 30.4067 90.7003 29.8 90.3036 29.38C89.907 28.96 89.4053 28.75 88.7986 28.75C88.3553 28.75 87.9936 28.8433 87.7136 29.03C87.457 29.1933 87.247 29.3683 87.0836 29.555C86.897 29.7883 86.7686 30.045 86.6986 30.325L81.9736 29.975C82.1136 29.1817 82.3586 28.4583 82.7086 27.805C83.0586 27.1283 83.5136 26.5567 84.0736 26.09C84.657 25.6 85.357 25.2267 86.1736 24.97C86.9903 24.69 87.9236 24.55 88.9736 24.55ZM87.9236 37.675C88.8103 37.675 89.522 37.4067 90.0586 36.87C90.6186 36.31 90.8986 35.5867 90.8986 34.7V34C89.8953 34 89.067 34.0583 88.4136 34.175C87.7836 34.2683 87.282 34.4083 86.9086 34.595C86.5586 34.7817 86.3136 35.0033 86.1736 35.26C86.057 35.5167 85.9986 35.7967 85.9986 36.1C85.9986 36.5433 86.162 36.9167 86.4886 37.22C86.8386 37.5233 87.317 37.675 87.9236 37.675ZM108.586 41L103.686 33.825V41H98.9609V18.95H103.686V31.375L108.061 24.9H113.486L108.061 32.6L114.011 41H108.586ZM116.801 29.275H114.351V25.25H115.576C116.86 25.25 117.501 24.6083 117.501 23.325V21.05H121.526V24.9H124.851V29.275H121.526V34.525C121.526 35.225 121.725 35.785 122.121 36.205C122.518 36.6017 123.02 36.8 123.626 36.8C123.813 36.8 123.976 36.8 124.116 36.8C124.256 36.7767 124.385 36.7533 124.501 36.73C124.618 36.7067 124.735 36.6717 124.851 36.625V40.825C124.665 40.895 124.455 40.9533 124.221 41C123.755 41.1167 123.206 41.175 122.576 41.175C120.733 41.175 119.31 40.6733 118.306 39.67C117.303 38.6433 116.801 37.1617 116.801 35.225V29.275ZM127.143 32.95C127.143 31.76 127.353 30.6633 127.773 29.66C128.216 28.6333 128.811 27.7467 129.558 27C130.304 26.23 131.168 25.635 132.148 25.215C133.151 24.7717 134.224 24.55 135.368 24.55C136.511 24.55 137.573 24.7717 138.553 25.215C139.556 25.635 140.431 26.23 141.178 27C141.924 27.7467 142.508 28.6333 142.928 29.66C143.371 30.6633 143.593 31.76 143.593 32.95C143.593 34.14 143.371 35.2483 142.928 36.275C142.508 37.2783 141.924 38.165 141.178 38.935C140.431 39.6817 139.556 40.2767 138.553 40.72C137.573 41.14 136.511 41.35 135.368 41.35C134.224 41.35 133.151 41.14 132.148 40.72C131.168 40.2767 130.304 39.6817 129.558 38.935C128.811 38.165 128.216 37.2783 127.773 36.275C127.353 35.2483 127.143 34.14 127.143 32.95ZM138.868 32.95C138.868 31.7133 138.529 30.7333 137.853 30.01C137.176 29.2867 136.348 28.925 135.368 28.925C134.388 28.925 133.559 29.2867 132.883 30.01C132.206 30.7333 131.868 31.7133 131.868 32.95C131.868 34.1867 132.206 35.1667 132.883 35.89C133.559 36.6133 134.388 36.975 135.368 36.975C136.348 36.975 137.176 36.6133 137.853 35.89C138.529 35.1667 138.868 34.1867 138.868 32.95ZM154.452 24.725C154.662 24.725 154.849 24.7367 155.012 24.76C155.199 24.7833 155.351 24.8067 155.467 24.83C155.607 24.8533 155.736 24.8767 155.852 24.9V29.8C155.712 29.7533 155.549 29.695 155.362 29.625C155.199 29.5783 155.012 29.5433 154.802 29.52C154.592 29.4733 154.359 29.45 154.102 29.45C153.216 29.45 152.492 29.7417 151.932 30.325C151.396 30.9083 151.127 31.725 151.127 32.775V41H146.402V24.9H149.902L150.602 26.65C150.882 26.3 151.221 25.985 151.617 25.705C151.944 25.4483 152.341 25.2267 152.807 25.04C153.297 24.83 153.846 24.725 154.452 24.725ZM167.222 18.95C168.365 18.95 169.415 19.1483 170.372 19.545C171.329 19.9183 172.157 20.455 172.857 21.155C173.557 21.8317 174.105 22.625 174.502 23.535C174.899 24.445 175.097 25.425 175.097 26.475C175.097 27.525 174.899 28.505 174.502 29.415C174.105 30.325 173.557 31.13 172.857 31.83C172.157 32.5067 171.329 33.0433 170.372 33.44C169.415 33.8133 168.365 34 167.222 34H163.722V41H158.647V18.95H167.222ZM167.222 29.1C168.015 29.1 168.68 28.8433 169.217 28.33C169.754 27.7933 170.022 27.175 170.022 26.475C170.022 25.775 169.754 25.1683 169.217 24.655C168.68 24.1183 168.015 23.85 167.222 23.85H163.722V29.1H167.222ZM182.607 41H177.882V18.95H182.607V41ZM193.119 24.55C194.076 24.55 194.962 24.7133 195.779 25.04C196.596 25.3667 197.296 25.8333 197.879 26.44C198.486 27.0233 198.952 27.7233 199.279 28.54C199.606 29.3567 199.769 30.2433 199.769 31.2V41H196.269L195.569 39.425C195.172 39.7517 194.729 40.0433 194.239 40.3C193.819 40.5333 193.317 40.7433 192.734 40.93C192.174 41.0933 191.544 41.175 190.844 41.175C189.094 41.175 187.752 40.755 186.819 39.915C185.886 39.0517 185.419 37.955 185.419 36.625C185.419 35.8317 185.571 35.1083 185.874 34.455C186.201 33.7783 186.737 33.2067 187.484 32.74C188.231 32.25 189.211 31.8767 190.424 31.62C191.661 31.34 193.201 31.2 195.044 31.2C195.044 30.4067 194.846 29.8 194.449 29.38C194.052 28.96 193.551 28.75 192.944 28.75C192.501 28.75 192.139 28.8433 191.859 29.03C191.602 29.1933 191.392 29.3683 191.229 29.555C191.042 29.7883 190.914 30.045 190.844 30.325L186.119 29.975C186.259 29.1817 186.504 28.4583 186.854 27.805C187.204 27.1283 187.659 26.5567 188.219 26.09C188.802 25.6 189.502 25.2267 190.319 24.97C191.136 24.69 192.069 24.55 193.119 24.55ZM192.069 37.675C192.956 37.675 193.667 37.4067 194.204 36.87C194.764 36.31 195.044 35.5867 195.044 34.7V34C194.041 34 193.212 34.0583 192.559 34.175C191.929 34.2683 191.427 34.4083 191.054 34.595C190.704 34.7817 190.459 35.0033 190.319 35.26C190.202 35.5167 190.144 35.7967 190.144 36.1C190.144 36.5433 190.307 36.9167 190.634 37.22C190.984 37.5233 191.462 37.675 192.069 37.675ZM210.631 24.55C211.425 24.55 212.148 24.6433 212.801 24.83C213.455 24.9933 214.038 25.2267 214.551 25.53C215.065 25.8333 215.508 26.1717 215.881 26.545C216.278 26.9183 216.616 27.3033 216.896 27.7C217.55 28.6333 218.028 29.6833 218.331 30.85L213.606 31.2C213.443 30.78 213.233 30.4067 212.976 30.08C212.743 29.8 212.428 29.5433 212.031 29.31C211.658 29.0533 211.191 28.925 210.631 28.925C209.651 28.925 208.823 29.2867 208.146 30.01C207.47 30.7333 207.131 31.7133 207.131 32.95C207.131 34.1867 207.47 35.1667 208.146 35.89C208.823 36.6133 209.651 36.975 210.631 36.975C211.191 36.975 211.658 36.8583 212.031 36.625C212.428 36.3917 212.743 36.135 212.976 35.855C213.233 35.5283 213.443 35.1433 213.606 34.7L218.331 35.05C218.028 36.2167 217.55 37.2667 216.896 38.2C216.616 38.5967 216.278 38.9817 215.881 39.355C215.508 39.7283 215.065 40.0667 214.551 40.37C214.038 40.6733 213.455 40.9067 212.801 41.07C212.148 41.2567 211.425 41.35 210.631 41.35C209.488 41.35 208.415 41.14 207.411 40.72C206.431 40.2767 205.568 39.6817 204.821 38.935C204.075 38.165 203.48 37.2783 203.036 36.275C202.616 35.2483 202.406 34.14 202.406 32.95C202.406 31.76 202.616 30.6633 203.036 29.66C203.48 28.6333 204.075 27.7467 204.821 27C205.568 26.23 206.431 25.635 207.411 25.215C208.415 24.7717 209.488 24.55 210.631 24.55ZM235.823 36.275C235.613 36.9283 235.298 37.5583 234.878 38.165C234.458 38.7717 233.933 39.32 233.303 39.81C232.673 40.2767 231.938 40.65 231.098 40.93C230.282 41.21 229.348 41.35 228.298 41.35C227.202 41.35 226.163 41.14 225.183 40.72C224.227 40.2767 223.375 39.6817 222.628 38.935C221.905 38.165 221.322 37.2783 220.878 36.275C220.458 35.2483 220.248 34.14 220.248 32.95C220.248 31.76 220.458 30.6633 220.878 29.66C221.322 28.6333 221.917 27.7467 222.663 27C223.41 26.23 224.273 25.635 225.253 25.215C226.257 24.7717 227.33 24.55 228.473 24.55C229.57 24.55 230.597 24.7483 231.553 25.145C232.51 25.5417 233.338 26.1133 234.038 26.86C234.762 27.5833 235.322 28.47 235.718 29.52C236.138 30.5467 236.348 31.69 236.348 32.95C236.348 33.1367 236.337 33.3233 236.313 33.51C236.29 33.6733 236.267 33.8367 236.243 34C236.22 34.1867 236.197 34.3617 236.173 34.525H225.148C225.335 35.1317 225.708 35.6917 226.268 36.205C226.852 36.7183 227.587 36.975 228.473 36.975C228.917 36.975 229.29 36.9283 229.593 36.835C229.92 36.7183 230.177 36.59 230.363 36.45C230.597 36.31 230.783 36.135 230.923 35.925L235.823 36.275ZM228.473 28.925C227.587 28.925 226.852 29.1933 226.268 29.73C225.708 30.2433 225.335 30.85 225.148 31.55H231.798C231.612 30.85 231.227 30.2433 230.643 29.73C230.083 29.1933 229.36 28.925 228.473 28.925Z" fill="black"/>
<path d="M10.7812 20.9336C4.827 20.9336 0 25.7606 0 31.7148C0 37.6691 4.827 42.4961 10.7812 42.4961C16.7355 42.4961 21.5625 37.6691 21.5625 31.7148C21.5625 25.7606 16.7355 20.9336 10.7812 20.9336ZM10.7812 35.7578C8.552 35.7578 6.73828 33.9441 6.73828 31.7148C6.73828 29.4856 8.552 27.6719 10.7812 27.6719C13.0105 27.6719 14.8242 29.4856 14.8242 31.7148C14.8242 33.9441 13.0105 35.7578 10.7812 35.7578Z" fill="#3BD88D"/>
<path d="M10.7812 30.3672C10.0383 30.3672 9.43359 30.9719 9.43359 31.7148C9.43359 32.4578 10.0383 33.0625 10.7812 33.0625C11.5242 33.0625 12.1289 32.4578 12.1289 31.7148C12.1289 30.9719 11.5242 30.3672 10.7812 30.3672Z" fill="#3BD88D"/>
<path d="M35.2188 11.5C35.2188 10.757 35.8234 10.1523 36.5664 10.1523V7.45703C34.3372 7.45703 32.5234 9.27075 32.5234 11.5V15.543H35.2188V11.5Z" fill="#3BD88D"/>
<path d="M28.5802 29.0195C30.4469 25.7995 33.9319 23.6289 37.9141 23.6289C39.8766 23.6289 41.7181 24.156 43.3047 25.0762V23.6289C43.3047 20.6563 40.8867 18.2383 37.9141 18.2383H19.7102C17.1497 16.5362 14.0795 15.543 10.7813 15.543C7.03137 15.543 3.37621 16.8559 0.489624 19.2399L2.20578 21.3182C4.61086 19.3322 7.65642 18.2383 10.7813 18.2383C17.2894 18.2383 22.7347 22.8758 23.9869 29.0195H28.5802Z" fill="#3BD88D"/>
<path d="M27.4739 31.7148H24.2578V35.7578H27.217C27.1616 35.3163 27.1328 34.8664 27.1328 34.4102C27.1328 33.4798 27.2514 32.5768 27.4739 31.7148Z" fill="#3BD88D"/>
<path d="M37.9141 26.3242C33.4482 26.3242 29.8281 29.9443 29.8281 34.4102C29.8281 38.876 33.4482 42.4961 37.9141 42.4961C42.3799 42.4961 46 38.876 46 34.4102C46 29.9443 42.3799 26.3242 37.9141 26.3242ZM37.9141 35.7578C37.1697 35.7578 36.5664 35.1545 36.5664 34.4102C36.5664 33.6658 37.1697 33.0625 37.9141 33.0625C38.6584 33.0625 39.2617 33.6658 39.2617 34.4102C39.2617 35.1545 38.6584 35.7578 37.9141 35.7578Z" fill="#3BD88D"/>
<path d="M6.73828 13.2874C8.05927 12.9972 9.41464 12.8477 10.7812 12.8477C14.2209 12.8477 17.5595 13.777 20.4903 15.543H25.7402L23.2639 6.10938H25.6055V3.41406H4.04297V6.10938H6.73828V13.2874Z" fill="#3BD88D"/>
</svg>
